<svg width="36" height="36" viewBox="0 0 36 36" fill="none" xmlns="http://www.w3.org/2000/svg">
<circle cx="18" cy="18" r="18" fill="white"/>
<path fill-rule="evenodd" clip-rule="evenodd" d="M13.465 7.066C14.638 7.012 15.012 7 18 7C20.988 7 21.362 7.013 22.534 7.066C23.706 7.119 24.506 7.306 25.206 7.577C25.939 7.854 26.604 8.287 27.154 8.847C27.714 9.396 28.146 10.06 28.422 10.794C28.694 11.494 28.88 12.294 28.934 13.464C28.988 14.639 29 15.013 29 18C29 20.988 28.987 21.362 28.934 22.535C28.881 23.705 28.694 24.505 28.422 25.205C28.146 25.9391 27.7133 26.6042 27.154 27.154C26.604 27.714 25.939 28.146 25.206 28.422C24.506 28.694 23.706 28.88 22.536 28.934C21.362 28.988 20.988 29 18 29C15.012 29 14.638 28.987 13.465 28.934C12.295 28.881 11.495 28.694 10.795 28.422C10.0609 28.146 9.39582 27.7133 8.846 27.154C8.28638 26.6047 7.85331 25.9399 7.577 25.206C7.306 24.506 7.12 23.706 7.066 22.536C7.012 21.361 7 20.987 7 18C7 15.012 7.013 14.638 7.066 13.466C7.119 12.294 7.306 11.494 7.577 10.794C7.85372 10.0601 8.28712 9.39531 8.847 8.846C9.39604 8.2865 10.0605 7.85344 10.794 7.577C11.494 7.306 12.294 7.12 13.464 7.066H13.465ZM22.445 9.046C21.285 8.993 20.937 8.982 18 8.982C15.063 8.982 14.715 8.993 13.555 9.046C12.482 9.095 11.9 9.274 11.512 9.425C10.999 9.625 10.632 9.862 10.247 10.247C9.88205 10.6021 9.60118 11.0343 9.425 11.512C9.274 11.9 9.095 12.482 9.046 13.555C8.993 14.715 8.982 15.063 8.982 18C8.982 20.937 8.993 21.285 9.046 22.445C9.095 23.518 9.274 24.1 9.425 24.488C9.601 24.965 9.882 25.398 10.247 25.753C10.602 26.118 11.035 26.399 11.512 26.575C11.9 26.726 12.482 26.905 13.555 26.954C14.715 27.007 15.062 27.018 18 27.018C20.938 27.018 21.285 27.007 22.445 26.954C23.518 26.905 24.1 26.726 24.488 26.575C25.001 26.375 25.368 26.138 25.753 25.753C26.118 25.398 26.399 24.965 26.575 24.488C26.726 24.1 26.905 23.518 26.954 22.445C27.007 21.285 27.018 20.937 27.018 18C27.018 15.063 27.007 14.715 26.954 13.555C26.905 12.482 26.726 11.9 26.575 11.512C26.375 10.999 26.138 10.632 25.753 10.247C25.3979 9.88207 24.9657 9.60121 24.488 9.425C24.1 9.274 23.518 9.095 22.445 9.046ZM16.595 21.391C17.3797 21.7176 18.2534 21.7617 19.0669 21.5157C19.8805 21.2697 20.5834 20.7489 21.0556 20.0422C21.5278 19.3356 21.7401 18.4869 21.656 17.6411C21.572 16.7953 21.197 16.005 20.595 15.405C20.2112 15.0215 19.7472 14.7278 19.2363 14.5451C18.7255 14.3625 18.1804 14.2954 17.6405 14.3486C17.1006 14.4019 16.5792 14.5742 16.1138 14.8531C15.6485 15.1321 15.2507 15.5107 14.9493 15.9619C14.6479 16.413 14.4502 16.9253 14.3705 17.462C14.2908 17.9986 14.3312 18.5463 14.4885 19.0655C14.6459 19.5847 14.9165 20.0626 15.2807 20.4647C15.645 20.8668 16.0938 21.1832 16.595 21.391ZM14.002 14.002C14.527 13.477 15.1503 13.0605 15.8363 12.7764C16.5223 12.4922 17.2575 12.346 18 12.346C18.7425 12.346 19.4777 12.4922 20.1637 12.7764C20.8497 13.0605 21.473 13.477 21.998 14.002C22.523 14.527 22.9395 15.1503 23.2236 15.8363C23.5078 16.5223 23.654 17.2575 23.654 18C23.654 18.7425 23.5078 19.4777 23.2236 20.1637C22.9395 20.8497 22.523 21.473 21.998 21.998C20.9377 23.0583 19.4995 23.654 18 23.654C16.5005 23.654 15.0623 23.0583 14.002 21.998C12.9417 20.9377 12.346 19.4995 12.346 18C12.346 16.5005 12.9417 15.0623 14.002 14.002ZM24.908 13.188C25.0381 13.0653 25.1423 12.9177 25.2143 12.754C25.2863 12.5903 25.3248 12.4138 25.3274 12.2349C25.33 12.0561 25.2967 11.8785 25.2295 11.7128C25.1622 11.5471 25.0624 11.3965 24.936 11.27C24.8095 11.1436 24.6589 11.0438 24.4932 10.9765C24.3275 10.9093 24.1499 10.876 23.9711 10.8786C23.7922 10.8812 23.6157 10.9197 23.452 10.9917C23.2883 11.0637 23.1407 11.1679 23.018 11.298C22.7793 11.551 22.6486 11.8871 22.6537 12.2349C22.6588 12.5827 22.7992 12.9149 23.0452 13.1608C23.2911 13.4068 23.6233 13.5472 23.9711 13.5523C24.3189 13.5574 24.655 13.4267 24.908 13.188Z" fill="#FF3F00"/>
</svg>
